<?xml version="1.0" encoding="UTF-8" standalone="no"?>
<svg
   version="1.0"
   width="48.000000pt"
   height="48.000000pt"
   viewBox="0 0 48.000000 48.000000"
   preserveAspectRatio="xMidYMid meet"
   id="svg10"
   sodipodi:docname="xmn-logo-48x48.svg"
   inkscape:version="1.1 (c68e22c387, 2021-05-23)"
   xmlns:inkscape="http://www.inkscape.org/namespaces/inkscape"
   xmlns:sodipodi="http://sodipodi.sourceforge.net/DTD/sodipodi-0.dtd"
   xmlns="http://www.w3.org/2000/svg"
   xmlns:svg="http://www.w3.org/2000/svg">
  <defs
     id="defs14" />
  <sodipodi:namedview
     id="namedview12"
     pagecolor="#ffffff"
     bordercolor="#666666"
     borderopacity="1.0"
     inkscape:pageshadow="2"
     inkscape:pageopacity="0.0"
     inkscape:pagecheckerboard="0"
     inkscape:document-units="pt"
     showgrid="false"
     inkscape:zoom="13"
     inkscape:cx="32.038462"
     inkscape:cy="32.038462"
     inkscape:window-width="1920"
     inkscape:window-height="1017"
     inkscape:window-x="-8"
     inkscape:window-y="-8"
     inkscape:window-maximized="1"
     inkscape:current-layer="svg10" />
  <g
     transform="translate(0.000000,48.000000) scale(0.100000,-0.100000)"
     fill="#000000"
     stroke="none"
     id="g8">
    <path
       d="M366 381 c-23 -9 -95 -181 -95 -229 -1 -26 4 -34 25 -42 14 -6 26 -10 27 -10 2 0 3 17 3 38 0 20 16 78 37 128 48 119 48 133 3 115z"
       id="path2" />
    <path
       d="M276 351 c-12 -4 -30 -39 -51 -95 l-33 -87 30 3 c28 3 33 9 59 78 39 104 38 118 -5 101z"
       id="path4" />
    <path
       d="M188 325 c-3 -3 -34 -10 -69 -14 l-64 -8 47 -22 48 -22 -15 -36 c-21 -49 -19 -55 12 -51 23 2 31 12 46 53 36 94 38 105 18 105 -10 0 -20 -2 -23 -5z"
       id="path6" />
  </g>
  <path
     style="fill:#d40000;fill-opacity:0.976471;stroke-width:0.0769231"
     d="m 17.10328,41.07887 c -0.400392,-0.120958 -0.676222,-0.34144 -0.79334,-0.634146 -0.352785,-0.881696 -0.0203,-1.964612 2.340115,-7.621892 0.773225,-1.853213 1.393283,-3.379716 1.377905,-3.39223 -0.01538,-0.01251 -1.222191,-0.567734 -2.681806,-1.23382 -4.048285,-1.847412 -9.7724815,-4.526865 -9.7400853,-4.559261 0.015874,-0.01587 2.3610025,-0.321769 5.2113963,-0.679766 2.850394,-0.357997 5.807902,-0.753309 6.572239,-0.878471 2.693924,-0.441136 4.979379,-0.97913 5.565398,-1.310089 0.917288,-0.518047 1.679621,-0.69513 3.016973,-0.700815 1.054378,-0.0045 1.37926,0.105151 1.64319,0.554507 0.463107,0.788464 -0.155249,3.297271 -2.102658,8.530959 -2.650915,7.12437 -3.149792,8.328772 -3.957752,9.554889 -1.02537,1.556047 -1.91637,2.067934 -4.052558,2.328228 -1.023839,0.124755 -2.064598,0.142935 -2.399017,0.04191 z"
     id="path1377"
     transform="scale(0.75)" />
  <path
     style="fill:#d40000;fill-opacity:0.976471;stroke-width:0.0769231"
     d="m 25.730769,41.315308 c 0,-0.08669 4.817521,-12.783817 5.44608,-14.35377 1.165346,-2.910682 2.395311,-5.524515 3.334559,-7.086361 1.077384,-1.791546 1.68867,-2.416297 2.735677,-2.795938 1.37194,-0.497461 1.977512,-0.636017 2.646895,-0.605619 0.59977,0.02724 0.627605,0.03703 0.876342,0.308453 0.141293,0.154178 0.293849,0.413399 0.339013,0.576048 0.399581,1.439029 -0.626299,5.1453 -3.648262,13.180341 -2.338982,6.219077 -3.227338,8.05355 -4.474714,9.240376 -0.937515,0.892007 -1.549113,1.064271 -5.024821,1.415307 -2.104227,0.212521 -2.230769,0.219394 -2.230769,0.121163 z"
     id="path1416"
     transform="scale(0.75)" />
  <path
     style="fill:#d40000;fill-opacity:0.976471;stroke-width:0.0769231"
     d="m 42,50.276507 c -1.232609,-0.442165 -2.946344,-1.143479 -3.639026,-1.489202 -1.142557,-0.570261 -1.801023,-1.402791 -2.052442,-2.594997 -0.148057,-0.702076 -0.150263,-2.894835 -0.0039,-3.923077 0.673378,-4.732173 4.231277,-14.612496 8.005288,-22.230769 1.592971,-3.215597 2.829215,-5.231005 3.799436,-6.194102 0.568118,-0.563945 0.606558,-0.587024 1.506075,-0.904208 2.145652,-0.756592 2.995034,-0.741684 3.409961,0.05985 0.1643,0.317385 0.176135,0.416477 0.1424,1.192308 -0.08298,1.908453 -1.191403,5.260736 -4.361984,13.192307 -1.648024,4.12272 -2.162477,5.500576 -2.9439,7.884616 -1.023926,3.123888 -1.74839,5.816071 -2.173493,8.076923 -0.174367,0.927343 -0.211666,1.398284 -0.268544,3.390601 -0.06019,2.10827 -0.159249,3.457373 -0.276252,3.762279 C 43.08226,50.658812 43.046149,50.651785 42,50.276507 Z"
     id="path1455"
     transform="scale(0.75)" />
</svg>
