<?xml version="1.0" encoding="UTF-8" standalone="no"?>
<svg
   version="1.0"
   width="96.000000pt"
   height="96.000000pt"
   viewBox="0 0 96.000000 96.000000"
   preserveAspectRatio="xMidYMid meet"
   id="svg19655"
   sodipodi:docname="favicon-96x96.svg"
   inkscape:version="1.1 (c68e22c387, 2021-05-23)"
   xmlns:inkscape="http://www.inkscape.org/namespaces/inkscape"
   xmlns:sodipodi="http://sodipodi.sourceforge.net/DTD/sodipodi-0.dtd"
   xmlns="http://www.w3.org/2000/svg"
   xmlns:svg="http://www.w3.org/2000/svg">
  <defs
     id="defs19659" />
  <sodipodi:namedview
     id="namedview19657"
     pagecolor="#ffffff"
     bordercolor="#666666"
     borderopacity="1.0"
     inkscape:pageshadow="2"
     inkscape:pageopacity="0.0"
     inkscape:pagecheckerboard="0"
     inkscape:document-units="pt"
     showgrid="false"
     inkscape:zoom="6.5"
     inkscape:cx="64.076923"
     inkscape:cy="64.076923"
     inkscape:window-width="1920"
     inkscape:window-height="1017"
     inkscape:window-x="-8"
     inkscape:window-y="-8"
     inkscape:window-maximized="1"
     inkscape:current-layer="svg19655" />
  <g
     transform="translate(0.000000,96.000000) scale(0.100000,-0.100000)"
     fill="#000000"
     stroke="none"
     id="g19653">
    <path
       d="M719 757 c-22 -8 -38 -38 -104 -204 -42 -107 -79 -211 -82 -232 -8 -61 24 -101 92 -115 l30 -6 0 82 c0 80 3 89 68 243 37 87 71 179 74 202 6 42 5 43 -23 42 -16 -1 -41 -6 -55 -12z"
       id="path19647" />
    <path
       d="M554 704 l-40 -14 -62 -168 c-34 -92 -62 -171 -62 -175 0 -4 25 -7 56 -5 l55 3 40 100 c58 148 92 253 84 264 -8 14 -20 13 -71 -5z"
       id="path19649" />
    <path
       d="M330 638 c-53 -13 -98 -18 -153 -15 -76 4 -77 3 -60 -16 22 -24 74 -51 131 -67 23 -7 42 -18 42 -24 0 -6 -13 -47 -30 -89 -17 -43 -30 -80 -30 -83 0 -2 26 -4 58 -4 l58 0 52 139 c29 77 52 149 52 160 0 26 -18 26 -120 -1z"
       id="path19651" />
  </g>
  <path
     style="fill:#d40000;fill-opacity:0.976471;stroke-width:0.153846"
     d="M 33.483851,82.453005 C 32.523046,82.388585 31.505,82.292366 31.221526,82.239186 l -0.515404,-0.09669 0.856093,-2.494324 C 32.033068,78.276292 33.143518,75.284615 34.029883,73 c 3.006445,-7.749151 4.662425,-12.607986 4.662425,-13.680097 0,-0.404694 -0.123946,-0.627625 -0.563548,-1.0136 -0.832049,-0.730548 -3.090628,-1.772681 -5.359529,-2.472948 -8.200302,-2.530911 -14.687069,-5.97118 -17.423077,-9.24036 -0.444231,-0.530799 -0.807692,-1.086392 -0.807692,-1.234651 0,-0.501646 1.058557,-0.634287 4.230769,-0.530128 10.849972,0.356256 13.24356,0.305954 17.914317,-0.376477 2.946627,-0.430523 5.259641,-0.919549 9.799544,-2.071856 7.48536,-1.899916 10.707626,-2.393683 12.114531,-1.856381 1.318877,0.503683 1.580226,1.594884 0.961606,4.01496 -0.551038,2.155691 -2.037629,6.844729 -3.502744,11.048433 -0.952267,2.732236 -6.93421,18.909311 -9.667457,26.143874 l -0.334213,0.884616 -5.412023,-0.02263 c -2.976612,-0.01245 -6.198137,-0.07533 -7.158941,-0.139753 z"
     id="path19734"
     transform="scale(0.75)" />
  <path
     style="fill:#d40000;fill-opacity:0.976471;stroke-width:0.153846"
     d="m 54.503406,82.307703 c -1.407927,-0.133948 -2.426483,-0.393498 -2.426483,-0.618323 0,-0.501234 4.428225,-12.827892 11.386734,-31.69676 l 5.137309,-13.930457 4.314902,-1.493343 c 2.373195,-0.821339 5.003386,-1.673301 5.844869,-1.89325 2.577241,-0.673645 3.797568,-0.427021 4.49194,0.907809 1.006926,1.935671 -4.226212,17.646295 -14.000672,42.032006 l -2.528295,6.307692 -3.131086,0.175085 c -5.116447,0.286101 -7.666558,0.34489 -9.089218,0.209541 z"
     id="path19773"
     transform="scale(0.75)" />
  <path
     style="fill:#d40000;fill-opacity:0.976471;stroke-width:0.153846"
     d="m 84.461538,100.68523 c -5.052148,-1.063779 -7.75123,-2.301458 -10.12296,-4.64193 -2.407361,-2.375634 -3.468144,-5.339966 -3.29119,-9.197146 0.06437,-1.403148 0.195698,-2.233785 0.54728,-3.461539 3.048501,-10.645598 15.63812,-43.006221 19.799415,-50.892835 1.588202,-3.010007 2.720594,-4.427271 4.089522,-5.118303 1.987233,-1.003153 6.382375,-1.900318 8.868715,-1.810344 1.36144,0.04927 1.46511,0.07691 1.81503,0.483908 0.31317,0.364256 0.37067,0.592464 0.36829,1.461538 -0.004,1.530792 -0.39947,4.036292 -0.93876,5.950381 -1.34847,4.786062 -4.8041,13.832474 -10.167771,26.617963 -5.723324,13.642811 -7.007657,17.237312 -7.768232,21.741209 -0.206949,1.225486 -0.262497,3.078288 -0.313329,10.451099 -0.04656,6.75312 -0.106474,8.958179 -0.243128,8.947919 -0.09974,-0.007 -1.289035,-0.24685 -2.642882,-0.53192 z"
     id="path19812"
     transform="scale(0.75)" />
</svg>
