<svg id="svg" version="1.1" xmlns="http://www.w3.org/2000/svg" xmlns:xlink="http://www.w3.org/1999/xlink" width="400" height="400" viewBox="0, 0, 400,400"><g id="svgg"><path id="path1" d="M225.758 28.794 C 225.561 28.986,224.230 29.186,222.800 29.238 C 221.370 29.290,220.110 29.465,220.000 29.628 C 219.890 29.791,218.990 29.973,218.000 30.033 C 217.010 30.092,215.975 30.311,215.700 30.519 C 215.365 30.773,215.200 30.734,215.200 30.400 C 215.200 30.013,215.072 30.008,214.628 30.377 C 214.313 30.638,213.053 30.873,211.828 30.897 C 210.602 30.922,209.600 31.101,209.600 31.295 C 209.600 31.489,209.412 31.531,209.182 31.389 C 208.953 31.247,208.503 31.349,208.182 31.615 C 207.862 31.880,207.600 31.964,207.600 31.800 C 207.600 31.636,207.352 31.708,207.049 31.959 C 206.746 32.211,205.656 32.483,204.626 32.564 C 203.597 32.645,202.645 32.822,202.511 32.956 C 202.377 33.090,201.957 33.200,201.579 33.200 C 201.201 33.200,200.389 33.461,199.774 33.780 C 199.160 34.098,198.509 34.268,198.329 34.156 C 198.148 34.044,198.000 34.143,198.000 34.376 C 198.000 34.609,197.640 34.800,197.200 34.800 C 196.760 34.800,196.400 34.980,196.400 35.200 C 196.400 35.420,196.265 35.556,196.100 35.501 C 195.589 35.334,192.400 36.508,192.400 36.864 C 192.400 37.049,192.038 37.200,191.595 37.200 C 190.791 37.200,189.199 37.934,188.778 38.498 C 188.655 38.662,188.083 38.835,187.506 38.883 C 186.930 38.931,186.545 39.112,186.652 39.285 C 186.760 39.458,186.387 39.600,185.824 39.600 C 185.261 39.600,184.800 39.780,184.800 40.000 C 184.800 40.220,184.545 40.400,184.233 40.400 C 183.922 40.400,183.601 40.598,183.520 40.840 C 183.439 41.082,182.717 41.280,181.914 41.280 C 181.002 41.280,180.371 41.500,180.230 41.865 C 180.107 42.187,179.827 42.340,179.608 42.205 C 179.211 41.959,178.505 42.409,177.313 43.665 C 176.966 44.031,176.462 44.245,176.193 44.142 C 175.924 44.039,175.588 44.253,175.448 44.619 C 175.308 44.984,174.940 45.186,174.630 45.067 C 174.320 44.948,173.963 45.121,173.836 45.451 C 173.709 45.781,173.423 45.938,173.200 45.800 C 172.977 45.662,172.693 45.814,172.568 46.138 C 172.444 46.462,171.815 46.945,171.171 47.212 C 170.527 47.479,170.000 47.855,170.000 48.049 C 170.000 48.242,169.761 48.400,169.470 48.400 C 169.178 48.400,168.517 48.850,168.000 49.400 C 167.483 49.950,166.862 50.400,166.619 50.400 C 166.375 50.400,165.917 50.760,165.600 51.200 C 165.283 51.640,164.613 52.000,164.112 52.000 C 163.596 52.000,163.243 52.217,163.300 52.500 C 163.355 52.775,163.087 52.975,162.704 52.945 C 162.322 52.915,162.107 53.050,162.228 53.245 C 162.349 53.440,162.089 53.600,161.651 53.600 C 161.205 53.600,160.742 53.953,160.600 54.400 C 160.460 54.840,160.088 55.200,159.773 55.200 C 159.458 55.200,159.200 55.359,159.200 55.553 C 159.200 55.748,158.840 56.001,158.400 56.116 C 157.960 56.231,157.600 56.572,157.600 56.874 C 157.600 57.176,157.215 57.688,156.744 58.012 C 156.273 58.335,155.344 59.185,154.679 59.900 C 154.015 60.615,153.250 61.200,152.979 61.200 C 152.707 61.200,152.378 61.481,152.246 61.825 C 152.114 62.169,151.851 62.355,151.661 62.238 C 151.471 62.121,150.899 62.469,150.388 63.012 C 149.878 63.556,149.608 64.000,149.788 64.000 C 149.968 64.000,149.275 64.641,148.249 65.425 C 147.223 66.208,146.488 67.018,146.615 67.225 C 146.743 67.431,146.537 67.600,146.157 67.600 C 145.777 67.600,145.572 67.705,145.700 67.833 C 145.947 68.080,145.670 68.458,143.410 70.961 C 142.634 71.820,142.000 72.632,142.000 72.767 C 142.000 72.901,141.596 73.188,141.102 73.405 C 140.608 73.622,139.988 74.250,139.725 74.800 C 139.462 75.350,138.633 76.469,137.882 77.286 C 137.105 78.132,136.707 78.851,136.959 78.955 C 137.242 79.072,137.221 79.148,136.900 79.168 C 136.625 79.186,136.400 79.481,136.400 79.824 C 136.400 80.167,136.220 80.336,136.000 80.200 C 135.780 80.064,135.600 80.323,135.600 80.776 C 135.600 81.229,135.420 81.600,135.200 81.600 C 134.980 81.600,134.800 81.851,134.800 82.157 C 134.800 82.464,134.519 82.822,134.175 82.954 C 133.831 83.086,133.664 83.380,133.804 83.607 C 133.945 83.834,133.827 83.970,133.543 83.910 C 133.259 83.849,132.714 84.414,132.332 85.165 C 131.950 85.916,131.409 86.671,131.130 86.843 C 130.851 87.015,130.750 87.283,130.905 87.439 C 131.061 87.594,130.875 87.949,130.494 88.228 C 130.112 88.507,129.784 88.885,129.765 89.068 C 129.681 89.883,129.084 90.776,128.758 90.574 C 128.561 90.452,128.400 90.723,128.400 91.176 C 128.400 91.629,128.226 92.000,128.013 92.000 C 127.799 92.000,127.740 92.300,127.881 92.666 C 128.052 93.113,127.983 93.236,127.668 93.042 C 127.212 92.760,127.029 93.240,127.177 94.331 C 127.217 94.623,126.878 94.959,126.425 95.078 C 125.686 95.271,125.311 96.570,125.553 98.100 C 125.579 98.265,125.464 98.400,125.298 98.400 C 125.131 98.400,124.760 98.985,124.471 99.700 C 124.183 100.415,123.779 101.313,123.574 101.695 C 123.368 102.077,123.200 102.579,123.200 102.811 C 123.200 103.043,122.840 103.620,122.400 104.092 C 121.960 104.564,121.600 105.277,121.600 105.675 C 121.600 106.074,121.459 106.400,121.287 106.400 C 121.115 106.400,120.934 106.895,120.884 107.500 C 120.834 108.105,120.615 108.660,120.397 108.733 C 120.178 108.807,120.000 109.222,120.000 109.657 C 120.000 110.092,119.857 110.359,119.683 110.251 C 119.392 110.072,119.213 110.729,119.080 112.471 C 119.052 112.839,118.887 113.054,118.714 112.947 C 118.541 112.840,118.400 113.087,118.400 113.496 C 118.400 113.905,118.175 114.482,117.900 114.779 C 117.497 115.213,117.505 115.258,117.941 115.009 C 118.286 114.814,118.219 115.105,117.757 115.809 C 117.358 116.418,116.974 117.292,116.904 117.750 C 116.834 118.208,116.602 118.758,116.389 118.971 C 115.880 119.480,115.886 120.118,116.395 119.803 C 116.882 119.502,116.490 120.641,115.662 121.934 C 115.147 122.738,115.143 122.919,115.632 123.234 C 115.998 123.470,116.055 123.706,115.791 123.900 C 115.567 124.065,115.324 124.830,115.253 125.600 C 115.182 126.370,114.990 127.180,114.827 127.400 C 114.664 127.620,114.492 128.605,114.444 129.590 C 114.396 130.574,114.171 131.494,113.944 131.634 C 113.717 131.775,113.547 132.004,113.566 132.145 C 113.749 133.514,113.524 136.800,113.258 136.636 C 113.069 136.519,112.882 137.624,112.842 139.090 C 112.802 140.556,112.631 141.946,112.462 142.178 C 111.467 143.549,112.101 158.330,113.145 158.100 C 113.558 158.009,113.771 158.518,113.647 159.300 C 113.621 159.465,113.830 159.600,114.112 159.600 C 114.393 159.600,114.883 159.960,115.200 160.400 C 115.856 161.310,359.600 161.709,359.600 160.800 C 359.600 160.580,359.920 160.400,360.312 160.400 C 360.703 160.400,361.283 160.040,361.600 159.600 C 361.917 159.160,362.415 158.800,362.706 158.800 C 362.997 158.800,363.189 158.575,363.134 158.300 C 363.078 158.025,363.279 157.353,363.580 156.807 C 364.227 155.634,364.402 151.289,363.840 150.332 C 363.568 149.869,363.608 149.472,363.973 149.032 C 364.345 148.584,364.376 148.253,364.078 147.894 C 363.847 147.616,363.610 145.535,363.550 143.269 C 363.491 141.003,363.298 139.060,363.121 138.951 C 362.945 138.842,362.800 137.673,362.800 136.353 C 362.800 134.855,362.650 134.046,362.400 134.200 C 362.152 134.353,362.000 133.604,362.000 132.224 C 362.000 131.001,361.820 130.000,361.600 130.000 C 361.380 130.000,361.200 129.111,361.200 128.024 C 361.200 126.937,361.020 125.936,360.800 125.800 C 360.580 125.664,360.400 125.023,360.400 124.376 C 360.400 123.729,360.220 123.200,360.000 123.200 C 359.780 123.200,359.600 122.828,359.600 122.374 C 359.600 121.919,359.407 121.187,359.171 120.747 C 358.936 120.306,358.743 118.965,358.743 117.767 C 358.743 116.528,358.583 115.687,358.371 115.818 C 358.167 115.944,358.000 115.587,358.000 115.024 C 358.000 114.461,357.809 114.000,357.576 114.000 C 357.343 114.000,357.262 113.824,357.395 113.609 C 357.528 113.393,357.099 111.992,356.442 110.495 C 355.785 108.998,355.155 107.265,355.042 106.644 C 354.930 106.024,354.563 105.310,354.226 105.058 C 353.890 104.806,353.555 104.193,353.482 103.695 C 353.409 103.197,353.150 102.590,352.906 102.346 C 352.662 102.102,352.558 101.654,352.674 101.351 C 352.790 101.048,352.715 100.800,352.507 100.800 C 352.298 100.800,351.891 100.083,351.602 99.206 C 351.313 98.329,350.744 97.311,350.338 96.944 C 349.932 96.577,349.600 96.001,349.600 95.664 C 349.600 95.327,349.210 94.636,348.733 94.129 C 348.257 93.622,347.832 92.890,347.790 92.503 C 347.667 91.380,346.952 89.877,346.051 88.848 C 345.592 88.325,345.313 87.740,345.432 87.548 C 345.550 87.357,345.501 87.200,345.321 87.200 C 345.142 87.200,344.756 86.659,344.463 85.998 C 344.170 85.336,343.766 84.897,343.565 85.021 C 343.364 85.146,343.200 84.889,343.200 84.451 C 343.200 84.005,342.847 83.542,342.400 83.400 C 341.960 83.260,341.578 82.978,341.550 82.773 C 341.523 82.568,341.478 82.261,341.450 82.090 C 341.423 81.920,340.905 81.247,340.300 80.594 C 339.695 79.942,339.200 79.171,339.200 78.880 C 339.200 78.590,339.029 78.459,338.820 78.588 C 338.610 78.717,338.224 78.104,337.960 77.225 C 337.697 76.345,337.328 75.721,337.141 75.837 C 336.953 75.952,336.800 75.851,336.800 75.610 C 336.800 75.055,334.164 72.400,333.613 72.400 C 333.386 72.400,333.200 72.154,333.200 71.854 C 333.200 71.554,331.761 69.889,330.001 68.154 C 328.242 66.419,326.802 64.775,326.801 64.500 C 326.801 64.225,326.519 64.000,326.176 64.000 C 325.833 64.000,325.664 63.820,325.800 63.600 C 325.936 63.380,325.756 63.200,325.400 63.200 C 325.044 63.200,324.864 63.020,325.000 62.800 C 325.136 62.580,324.996 62.400,324.688 62.400 C 324.380 62.400,323.583 61.815,322.916 61.100 C 321.511 59.594,320.103 58.400,319.733 58.400 C 319.302 58.400,316.400 55.293,316.400 54.831 C 316.400 54.594,316.074 54.400,315.675 54.400 C 315.277 54.400,314.551 53.860,314.063 53.200 C 313.265 52.120,311.999 51.428,312.600 52.400 C 312.736 52.620,312.657 52.800,312.424 52.800 C 312.191 52.800,312.000 52.650,312.000 52.468 C 312.000 52.285,311.505 51.881,310.900 51.570 C 310.295 51.260,309.509 50.689,309.153 50.303 C 308.797 49.916,308.202 49.600,307.829 49.600 C 307.457 49.600,307.252 49.440,307.373 49.244 C 307.494 49.048,306.954 48.584,306.172 48.214 C 305.391 47.843,304.653 47.283,304.533 46.970 C 304.413 46.656,304.064 46.400,303.757 46.400 C 303.451 46.400,303.200 46.209,303.200 45.976 C 303.200 45.743,303.020 45.664,302.800 45.800 C 302.580 45.936,302.400 45.895,302.400 45.710 C 302.400 45.524,301.860 45.054,301.200 44.664 C 300.540 44.274,300.000 44.077,300.000 44.226 C 300.000 44.376,299.738 44.281,299.418 44.015 C 298.565 43.307,295.972 42.031,296.228 42.445 C 296.349 42.640,296.278 42.800,296.070 42.800 C 295.863 42.800,295.599 42.440,295.484 42.000 C 295.326 41.395,294.938 41.200,293.891 41.200 C 293.114 41.200,292.063 40.850,291.491 40.400 C 290.931 39.960,290.282 39.600,290.047 39.600 C 289.812 39.600,289.030 39.241,288.310 38.801 C 287.589 38.362,286.719 38.002,286.375 38.001 C 286.032 38.001,285.402 37.685,284.975 37.300 C 284.549 36.915,283.690 36.540,283.066 36.467 C 282.442 36.394,281.595 36.045,281.183 35.693 C 280.772 35.340,280.143 35.009,279.786 34.957 C 279.429 34.904,278.837 34.731,278.469 34.570 C 278.101 34.410,277.561 34.230,277.269 34.170 C 276.977 34.111,276.437 33.931,276.069 33.771 C 275.701 33.611,275.054 33.413,274.631 33.332 C 274.209 33.251,273.646 33.005,273.382 32.785 C 273.118 32.566,272.613 32.497,272.261 32.632 C 271.909 32.767,271.333 32.590,270.982 32.239 C 270.630 31.887,270.131 31.603,269.871 31.606 C 269.595 31.610,269.648 31.773,270.000 32.000 C 270.963 32.622,270.073 32.458,268.737 31.767 C 268.017 31.395,267.107 31.237,266.523 31.383 C 265.979 31.520,265.621 31.490,265.728 31.316 C 265.836 31.142,264.816 30.952,263.462 30.893 C 262.108 30.834,260.940 30.609,260.867 30.393 C 260.793 30.177,259.704 30.000,258.447 30.000 C 257.189 30.000,255.989 29.835,255.780 29.634 C 254.940 28.824,226.540 28.029,225.758 28.794 " stroke="none" fill="#54cccb" fill-rule="evenodd"></path><path id="path2" d="" stroke="none" fill="#e83ca4" fill-rule="evenodd"></path><path id="path3" d="" stroke="none" fill="#a09ca4" fill-rule="evenodd"></path><path id="path4" d="M247.633 28.544 C 247.725 28.623,248.340 28.808,249.000 28.956 C 249.876 29.152,250.038 29.115,249.600 28.818 C 249.060 28.453,247.232 28.198,247.633 28.544 M205.600 32.000 C 205.112 32.315,205.164 32.389,205.876 32.394 C 206.358 32.397,206.864 32.220,207.000 32.000 C 207.315 31.491,206.388 31.491,205.600 32.000 M148.392 64.610 C 147.624 65.535,148.079 65.629,149.144 64.766 C 149.788 64.244,149.899 64.000,149.493 64.000 C 149.166 64.000,148.670 64.274,148.392 64.610 M355.807 109.079 C 356.407 110.514,356.800 111.162,356.800 110.716 C 356.800 110.284,355.585 107.600,355.389 107.600 C 355.279 107.600,355.467 108.266,355.807 109.079 M363.734 149.427 C 363.602 149.772,363.698 150.258,363.947 150.507 C 364.284 150.844,364.400 150.684,364.400 149.880 C 364.400 148.677,364.101 148.473,363.734 149.427 M364.093 153.200 C 364.093 153.970,364.175 154.285,364.276 153.900 C 364.376 153.515,364.376 152.885,364.276 152.500 C 364.175 152.115,364.093 152.430,364.093 153.200 " stroke="none" fill="#54d0a4" fill-rule="evenodd"></path><path id="path5" d="M247.633 28.544 C 247.725 28.623,248.340 28.808,249.000 28.956 C 249.876 29.152,250.038 29.115,249.600 28.818 C 249.060 28.453,247.232 28.198,247.633 28.544 M205.600 32.000 C 205.112 32.315,205.164 32.389,205.876 32.394 C 206.358 32.397,206.864 32.220,207.000 32.000 C 207.315 31.491,206.388 31.491,205.600 32.000 M148.392 64.610 C 147.624 65.535,148.079 65.629,149.144 64.766 C 149.788 64.244,149.899 64.000,149.493 64.000 C 149.166 64.000,148.670 64.274,148.392 64.610 M355.807 109.079 C 356.407 110.514,356.800 111.162,356.800 110.716 C 356.800 110.284,355.585 107.600,355.389 107.600 C 355.279 107.600,355.467 108.266,355.807 109.079 M363.734 149.427 C 363.602 149.772,363.698 150.258,363.947 150.507 C 364.284 150.844,364.400 150.684,364.400 149.880 C 364.400 148.677,364.101 148.473,363.734 149.427 M364.093 153.200 C 364.093 153.970,364.175 154.285,364.276 153.900 C 364.376 153.515,364.376 152.885,364.276 152.500 C 364.175 152.115,364.093 152.430,364.093 153.200 " stroke="none" fill="#54d0a4" fill-rule="evenodd"></path><path id="path6" d="M247.633 28.544 C 247.725 28.623,248.340 28.808,249.000 28.956 C 249.876 29.152,250.038 29.115,249.600 28.818 C 249.060 28.453,247.232 28.198,247.633 28.544 M205.600 32.000 C 205.112 32.315,205.164 32.389,205.876 32.394 C 206.358 32.397,206.864 32.220,207.000 32.000 C 207.315 31.491,206.388 31.491,205.600 32.000 M148.392 64.610 C 147.624 65.535,148.079 65.629,149.144 64.766 C 149.788 64.244,149.899 64.000,149.493 64.000 C 149.166 64.000,148.670 64.274,148.392 64.610 M355.807 109.079 C 356.407 110.514,356.800 111.162,356.800 110.716 C 356.800 110.284,355.585 107.600,355.389 107.600 C 355.279 107.600,355.467 108.266,355.807 109.079 M363.734 149.427 C 363.602 149.772,363.698 150.258,363.947 150.507 C 364.284 150.844,364.400 150.684,364.400 149.880 C 364.400 148.677,364.101 148.473,363.734 149.427 M364.093 153.200 C 364.093 153.970,364.175 154.285,364.276 153.900 C 364.376 153.515,364.376 152.885,364.276 152.500 C 364.175 152.115,364.093 152.430,364.093 153.200 " stroke="none" fill="#54d0a4" fill-rule="evenodd"></path><path id="path7" d="M247.633 28.544 C 247.725 28.623,248.340 28.808,249.000 28.956 C 249.876 29.152,250.038 29.115,249.600 28.818 C 249.060 28.453,247.232 28.198,247.633 28.544 M205.600 32.000 C 205.112 32.315,205.164 32.389,205.876 32.394 C 206.358 32.397,206.864 32.220,207.000 32.000 C 207.315 31.491,206.388 31.491,205.600 32.000 M148.392 64.610 C 147.624 65.535,148.079 65.629,149.144 64.766 C 149.788 64.244,149.899 64.000,149.493 64.000 C 149.166 64.000,148.670 64.274,148.392 64.610 M355.807 109.079 C 356.407 110.514,356.800 111.162,356.800 110.716 C 356.800 110.284,355.585 107.600,355.389 107.600 C 355.279 107.600,355.467 108.266,355.807 109.079 M363.734 149.427 C 363.602 149.772,363.698 150.258,363.947 150.507 C 364.284 150.844,364.400 150.684,364.400 149.880 C 364.400 148.677,364.101 148.473,363.734 149.427 M364.093 153.200 C 364.093 153.970,364.175 154.285,364.276 153.900 C 364.376 153.515,364.376 152.885,364.276 152.500 C 364.175 152.115,364.093 152.430,364.093 153.200 " stroke="none" fill="#54d0a4" fill-rule="evenodd"></path><path id="path8" d="M247.633 28.544 C 247.725 28.623,248.340 28.808,249.000 28.956 C 249.876 29.152,250.038 29.115,249.600 28.818 C 249.060 28.453,247.232 28.198,247.633 28.544 M205.600 32.000 C 205.112 32.315,205.164 32.389,205.876 32.394 C 206.358 32.397,206.864 32.220,207.000 32.000 C 207.315 31.491,206.388 31.491,205.600 32.000 M148.392 64.610 C 147.624 65.535,148.079 65.629,149.144 64.766 C 149.788 64.244,149.899 64.000,149.493 64.000 C 149.166 64.000,148.670 64.274,148.392 64.610 M355.807 109.079 C 356.407 110.514,356.800 111.162,356.800 110.716 C 356.800 110.284,355.585 107.600,355.389 107.600 C 355.279 107.600,355.467 108.266,355.807 109.079 M363.734 149.427 C 363.602 149.772,363.698 150.258,363.947 150.507 C 364.284 150.844,364.400 150.684,364.400 149.880 C 364.400 148.677,364.101 148.473,363.734 149.427 M364.093 153.200 C 364.093 153.970,364.175 154.285,364.276 153.900 C 364.376 153.515,364.376 152.885,364.276 152.500 C 364.175 152.115,364.093 152.430,364.093 153.200 " stroke="none" fill="#54d0a4" fill-rule="evenodd"></path><path id="path0" d="M60.771 183.666 C 59.601 184.811,58.677 186.115,58.536 186.818 C 58.405 187.477,58.140 188.114,57.948 188.232 C 57.464 188.531,57.509 192.697,58.000 193.000 C 58.220 193.136,58.400 193.569,58.400 193.962 C 58.400 194.355,58.760 195.002,59.200 195.400 C 59.640 195.798,60.000 196.336,60.000 196.594 C 60.000 196.853,60.495 197.320,61.100 197.632 C 61.705 197.945,62.549 198.515,62.975 198.900 C 63.842 199.682,68.557 199.917,69.000 199.200 C 69.136 198.980,69.582 198.800,69.992 198.800 C 71.099 198.800,74.247 195.463,74.545 193.973 C 75.597 188.716,73.322 182.400,70.377 182.400 C 69.976 182.400,69.530 182.211,69.388 181.980 C 69.235 181.733,67.821 181.592,65.947 181.637 L 62.765 181.713 60.771 183.666 M90.600 182.000 C 90.464 182.220,90.089 182.400,89.766 182.400 C 88.990 182.400,85.600 185.809,85.600 186.589 C 85.600 186.925,85.420 187.200,85.200 187.200 C 84.965 187.200,84.800 188.600,84.800 190.600 C 84.800 192.600,84.965 194.000,85.200 194.000 C 85.420 194.000,85.600 194.288,85.600 194.640 C 85.600 195.611,89.174 198.800,90.264 198.800 C 90.779 198.800,91.200 198.980,91.200 199.200 C 91.200 199.466,140.392 199.600,237.976 199.600 C 335.396 199.600,384.836 199.465,385.000 199.200 C 385.136 198.980,385.573 198.800,385.972 198.800 C 391.726 198.800,392.491 184.406,386.832 182.610 C 386.374 182.465,386.000 182.178,386.000 181.973 C 386.000 181.443,90.928 181.470,90.600 182.000 M5.400 216.400 C 5.264 216.620,4.735 216.800,4.225 216.800 C 3.683 216.800,2.610 217.467,1.648 218.400 L 0.000 219.999 -0.000 225.219 C -0.000 230.772,0.631 232.345,2.876 232.387 C 3.248 232.394,3.664 232.580,3.800 232.800 C 4.106 233.295,10.669 233.335,10.973 232.844 C 11.094 232.649,11.689 232.365,12.296 232.215 C 13.571 231.898,15.200 230.505,15.200 229.730 C 15.200 229.439,15.360 229.200,15.556 229.200 C 16.287 229.200,16.695 224.865,16.187 222.493 C 15.386 218.754,6.906 213.964,5.400 216.400 M32.600 216.400 C 32.464 216.620,32.003 216.800,31.576 216.800 C 31.149 216.800,30.800 216.980,30.800 217.200 C 30.800 217.420,30.575 217.606,30.300 217.613 C 27.440 217.685,25.107 224.565,26.672 228.311 C 27.336 229.899,29.715 232.400,30.563 232.400 C 30.887 232.400,31.264 232.580,31.400 232.800 C 31.564 233.065,68.404 233.200,140.624 233.200 C 213.008 233.200,249.600 233.066,249.600 232.800 C 249.600 232.580,250.144 232.400,250.810 232.400 C 251.719 232.400,252.111 232.161,252.385 231.439 C 252.586 230.910,252.942 230.360,253.175 230.215 C 253.409 230.071,253.600 229.603,253.600 229.176 C 253.600 228.749,253.780 228.400,254.000 228.400 C 254.233 228.400,254.400 227.083,254.400 225.249 C 254.400 220.877,253.252 218.461,250.600 217.253 C 249.940 216.953,249.087 216.548,248.705 216.353 C 247.701 215.843,32.916 215.889,32.600 216.400 M65.800 250.800 C 65.664 251.020,64.933 251.200,64.176 251.200 C 63.419 251.200,62.800 251.380,62.800 251.600 C 62.800 251.820,62.432 252.000,61.982 252.000 C 61.131 252.000,59.200 253.653,59.200 254.382 C 59.200 254.612,59.020 254.800,58.800 254.800 C 58.580 254.800,58.400 255.239,58.400 255.776 C 58.400 256.313,58.220 256.864,58.000 257.000 C 57.780 257.136,57.600 258.317,57.600 259.624 C 57.600 260.941,57.778 262.000,58.000 262.000 C 58.220 262.000,58.400 262.283,58.400 262.629 C 58.400 262.974,58.625 263.483,58.900 263.758 C 59.175 264.034,59.850 264.829,60.400 265.526 C 60.950 266.223,61.625 266.794,61.900 266.796 C 62.175 266.798,62.400 266.936,62.400 267.103 C 62.400 267.970,67.711 268.792,68.200 268.000 C 68.336 267.780,68.799 267.600,69.229 267.600 C 71.028 267.600,74.156 264.721,74.562 262.692 C 75.312 258.938,74.330 253.571,72.701 252.527 C 71.759 251.924,69.401 251.212,68.324 251.206 C 67.732 251.203,67.136 251.020,67.000 250.800 C 66.864 250.580,66.594 250.400,66.400 250.400 C 66.206 250.400,65.936 250.580,65.800 250.800 M89.533 251.588 C 89.460 251.802,89.013 252.035,88.539 252.107 C 87.491 252.266,86.400 253.122,86.400 253.787 C 86.400 254.056,86.064 254.580,85.654 254.951 C 84.493 256.001,84.441 261.864,85.582 263.088 C 86.032 263.571,86.400 264.109,86.400 264.283 C 86.401 264.914,88.309 266.800,88.947 266.800 C 89.306 266.800,89.600 266.980,89.600 267.200 C 89.600 267.420,90.140 267.600,90.800 267.600 C 91.460 267.600,92.000 267.780,92.000 268.000 C 92.000 268.266,135.333 268.400,221.200 268.400 C 307.067 268.400,350.400 268.266,350.400 268.000 C 350.400 267.780,350.940 267.600,351.600 267.600 C 352.260 267.600,352.800 267.450,352.800 267.268 C 352.800 267.085,353.251 266.694,353.803 266.399 C 357.203 264.579,358.695 256.556,356.033 254.400 C 355.898 254.290,355.515 253.777,355.184 253.260 C 353.794 251.090,361.838 251.213,220.533 251.206 C 136.240 251.202,89.619 251.338,89.533 251.588 M20.000 285.200 C 20.000 285.420,19.640 285.600,19.200 285.600 C 18.760 285.600,18.400 285.780,18.400 286.000 C 18.400 286.220,18.076 286.400,17.680 286.400 C 17.273 286.400,16.536 287.089,15.980 287.989 C 15.441 288.863,14.865 289.583,14.700 289.589 C 14.535 289.595,14.400 289.949,14.400 290.376 C 14.400 290.803,14.220 291.264,14.000 291.400 C 13.155 291.922,13.981 298.000,14.897 298.000 C 15.064 298.000,15.200 298.262,15.200 298.582 C 15.200 301.092,24.531 304.453,25.800 302.400 C 25.936 302.180,26.313 302.000,26.637 302.000 C 29.510 302.000,33.504 292.024,31.200 290.600 C 30.980 290.464,30.800 290.089,30.800 289.766 C 30.800 289.003,27.397 285.600,26.634 285.600 C 26.311 285.600,25.936 285.420,25.800 285.200 C 25.664 284.980,24.303 284.800,22.776 284.800 C 21.192 284.800,20.000 284.972,20.000 285.200 M47.400 285.200 C 47.264 285.420,46.813 285.600,46.397 285.600 C 45.309 285.600,42.000 288.851,42.000 289.919 C 42.000 290.404,41.820 290.800,41.600 290.800 C 41.369 290.800,41.200 292.059,41.200 293.776 C 41.200 295.413,41.380 296.864,41.600 297.000 C 41.820 297.136,42.000 297.543,42.000 297.904 C 42.000 298.915,45.479 302.000,46.620 302.000 C 47.159 302.000,47.600 302.180,47.600 302.400 C 47.600 302.910,152.104 302.956,153.105 302.447 C 153.487 302.252,154.333 301.847,154.985 301.547 C 155.637 301.246,156.762 300.377,157.485 299.617 L 158.800 298.233 158.800 293.780 L 158.800 289.327 157.040 287.464 C 156.071 286.439,155.002 285.600,154.663 285.600 C 154.324 285.600,153.936 285.420,153.800 285.200 C 153.637 284.937,135.470 284.800,100.600 284.800 C 65.730 284.800,47.563 284.937,47.400 285.200 M177.288 285.627 C 175.526 286.661,173.200 289.028,173.200 289.787 C 173.200 290.124,173.020 290.400,172.800 290.400 C 172.565 290.400,172.400 291.800,172.400 293.800 C 172.400 295.800,172.565 297.200,172.800 297.200 C 173.020 297.200,173.200 297.435,173.200 297.722 C 173.200 298.508,175.638 301.011,177.330 301.961 L 178.824 302.800 286.658 302.800 L 394.491 302.800 396.146 301.900 C 399.628 300.006,399.986 299.245,399.994 293.742 C 400.001 288.296,399.652 287.539,396.258 285.632 L 394.776 284.800 286.688 284.828 C 180.747 284.856,178.574 284.872,177.288 285.627 M194.600 319.600 C 194.464 319.820,193.769 320.000,193.055 320.000 C 191.609 320.000,188.800 322.215,188.800 323.354 C 188.800 323.709,188.664 324.000,188.497 324.000 C 187.996 324.000,187.200 327.065,187.200 328.994 C 187.200 329.987,187.380 330.800,187.600 330.800 C 187.820 330.800,188.000 331.340,188.000 332.000 C 188.000 332.660,188.180 333.200,188.400 333.200 C 188.620 333.200,188.800 333.378,188.800 333.595 C 188.800 338.085,200.502 338.526,202.513 334.112 C 202.741 333.610,203.051 333.200,203.200 333.200 C 203.349 333.200,203.680 332.742,203.936 332.181 C 204.508 330.926,204.561 324.800,204.000 324.800 C 203.780 324.800,203.600 324.565,203.600 324.278 C 203.600 323.619,201.044 320.800,200.446 320.800 C 200.201 320.800,200.000 320.620,200.000 320.400 C 200.000 320.180,199.561 320.000,199.024 320.000 C 198.487 320.000,197.936 319.820,197.800 319.600 C 197.664 319.380,196.944 319.200,196.200 319.200 C 195.456 319.200,194.736 319.380,194.600 319.600 M221.000 319.600 C 220.864 319.820,220.403 320.000,219.976 320.000 C 219.549 320.000,219.200 320.180,219.200 320.400 C 219.200 320.620,218.924 320.800,218.587 320.800 C 218.249 320.800,217.349 321.424,216.587 322.187 C 215.824 322.949,215.200 323.849,215.200 324.187 C 215.200 324.524,215.020 324.800,214.800 324.800 C 214.214 324.800,214.299 331.033,214.900 332.091 C 215.750 333.587,217.728 335.503,219.327 336.379 L 220.853 337.216 287.838 337.213 C 324.679 337.211,355.297 337.091,355.877 336.945 C 357.440 336.553,360.400 333.921,360.400 332.925 C 360.400 332.636,360.580 332.400,360.800 332.400 C 361.020 332.400,361.200 331.871,361.200 331.224 C 361.200 330.577,361.380 329.936,361.600 329.800 C 361.820 329.664,362.000 328.944,362.000 328.200 C 362.000 327.456,361.820 326.736,361.600 326.600 C 361.380 326.464,361.200 326.003,361.200 325.576 C 361.200 325.149,361.020 324.800,360.800 324.800 C 360.580 324.800,360.400 324.480,360.400 324.088 C 360.400 323.697,360.040 323.117,359.600 322.800 C 359.160 322.483,358.800 322.021,358.800 321.774 C 358.800 320.943,357.348 320.000,356.069 320.000 C 355.371 320.000,354.800 319.820,354.800 319.600 C 354.800 319.335,332.275 319.200,288.024 319.200 C 243.937 319.200,221.163 319.336,221.000 319.600 M112.103 355.218 C 110.566 356.121,108.428 358.383,108.412 359.124 C 108.405 359.412,108.244 359.551,108.054 359.433 C 107.385 359.020,107.518 365.713,108.206 367.092 C 108.778 368.238,110.700 370.000,111.378 370.000 C 111.519 370.000,112.020 370.360,112.492 370.800 C 113.672 371.899,119.041 371.969,120.225 370.900 C 120.651 370.515,121.491 369.947,122.091 369.637 C 125.090 368.090,126.534 357.600,123.748 357.600 C 123.496 357.600,122.865 357.062,122.345 356.404 C 121.825 355.746,121.085 355.206,120.700 355.204 C 120.315 355.202,120.000 355.020,120.000 354.800 C 120.000 354.034,113.537 354.376,112.103 355.218 M139.800 354.800 C 139.664 355.020,139.302 355.200,138.995 355.200 C 138.259 355.200,136.400 357.076,136.400 357.818 C 136.400 358.138,136.220 358.400,136.000 358.400 C 135.780 358.400,135.600 358.929,135.600 359.576 C 135.600 360.223,135.420 360.864,135.200 361.000 C 134.980 361.136,134.800 361.946,134.800 362.800 C 134.800 363.654,134.980 364.464,135.200 364.600 C 135.420 364.736,135.613 365.242,135.629 365.724 C 135.673 367.026,136.843 368.769,138.183 369.529 C 138.834 369.898,139.723 370.515,140.158 370.900 C 141.089 371.722,276.000 372.020,276.000 371.200 C 276.000 370.980,276.360 370.800,276.800 370.800 C 277.240 370.800,277.600 370.664,277.600 370.498 C 277.600 370.331,278.142 369.955,278.806 369.662 C 281.016 368.683,282.400 366.076,282.400 362.889 C 282.400 360.145,281.597 357.600,280.731 357.600 C 280.506 357.600,279.817 357.060,279.200 356.400 C 278.583 355.740,277.791 355.200,277.440 355.200 C 277.088 355.200,276.800 355.020,276.800 354.800 C 276.800 354.246,140.142 354.246,139.800 354.800 " stroke="none" fill="#e4147c" fill-rule="evenodd"></path><path id="path1" d="M225.758 28.794 C 225.561 28.986,224.230 29.186,222.800 29.238 C 221.370 29.290,220.110 29.465,220.000 29.628 C 219.890 29.791,218.990 29.973,218.000 30.033 C 217.010 30.092,215.975 30.311,215.700 30.519 C 215.365 30.773,215.200 30.734,215.200 30.400 C 215.200 30.013,215.072 30.008,214.628 30.377 C 214.313 30.638,213.053 30.873,211.828 30.897 C 210.602 30.922,209.600 31.101,209.600 31.295 C 209.600 31.489,209.412 31.531,209.182 31.389 C 208.953 31.247,208.503 31.349,208.182 31.615 C 207.862 31.880,207.600 31.964,207.600 31.800 C 207.600 31.636,207.352 31.708,207.049 31.959 C 206.746 32.211,205.656 32.483,204.626 32.564 C 203.597 32.645,202.645 32.822,202.511 32.956 C 202.377 33.090,201.957 33.200,201.579 33.200 C 201.201 33.200,200.389 33.461,199.774 33.780 C 199.160 34.098,198.509 34.268,198.329 34.156 C 198.148 34.044,198.000 34.143,198.000 34.376 C 198.000 34.609,197.640 34.800,197.200 34.800 C 196.760 34.800,196.400 34.980,196.400 35.200 C 196.400 35.420,196.265 35.556,196.100 35.501 C 195.589 35.334,192.400 36.508,192.400 36.864 C 192.400 37.049,192.038 37.200,191.595 37.200 C 190.791 37.200,189.199 37.934,188.778 38.498 C 188.655 38.662,188.083 38.835,187.506 38.883 C 186.930 38.931,186.545 39.112,186.652 39.285 C 186.760 39.458,186.387 39.600,185.824 39.600 C 185.261 39.600,184.800 39.780,184.800 40.000 C 184.800 40.220,184.545 40.400,184.233 40.400 C 183.922 40.400,183.601 40.598,183.520 40.840 C 183.439 41.082,182.717 41.280,181.914 41.280 C 181.002 41.280,180.371 41.500,180.230 41.865 C 180.107 42.187,179.827 42.340,179.608 42.205 C 179.211 41.959,178.505 42.409,177.313 43.665 C 176.966 44.031,176.462 44.245,176.193 44.142 C 175.924 44.039,175.588 44.253,175.448 44.619 C 175.308 44.984,174.940 45.186,174.630 45.067 C 174.320 44.948,173.963 45.121,173.836 45.451 C 173.709 45.781,173.423 45.938,173.200 45.800 C 172.977 45.662,172.693 45.814,172.568 46.138 C 172.444 46.462,171.815 46.945,171.171 47.212 C 170.527 47.479,170.000 47.855,170.000 48.049 C 170.000 48.242,169.761 48.400,169.470 48.400 C 169.178 48.400,168.517 48.850,168.000 49.400 C 167.483 49.950,166.862 50.400,166.619 50.400 C 166.375 50.400,165.917 50.760,165.600 51.200 C 165.283 51.640,164.613 52.000,164.112 52.000 C 163.596 52.000,163.243 52.217,163.300 52.500 C 163.355 52.775,163.087 52.975,162.704 52.945 C 162.322 52.915,162.107 53.050,162.228 53.245 C 162.349 53.440,162.089 53.600,161.651 53.600 C 161.205 53.600,160.742 53.953,160.600 54.400 C 160.460 54.840,160.088 55.200,159.773 55.200 C 159.458 55.200,159.200 55.359,159.200 55.553 C 159.200 55.748,158.840 56.001,158.400 56.116 C 157.960 56.231,157.600 56.572,157.600 56.874 C 157.600 57.176,157.215 57.688,156.744 58.012 C 156.273 58.335,155.344 59.185,154.679 59.900 C 154.015 60.615,153.250 61.200,152.979 61.200 C 152.707 61.200,152.378 61.481,152.246 61.825 C 152.114 62.169,151.851 62.355,151.661 62.238 C 151.471 62.121,150.899 62.469,150.388 63.012 C 149.878 63.556,149.608 64.000,149.788 64.000 C 149.968 64.000,149.275 64.641,148.249 65.425 C 147.223 66.208,146.488 67.018,146.615 67.225 C 146.743 67.431,146.537 67.600,146.157 67.600 C 145.777 67.600,145.572 67.705,145.700 67.833 C 145.947 68.080,145.670 68.458,143.410 70.961 C 142.634 71.820,142.000 72.632,142.000 72.767 C 142.000 72.901,141.596 73.188,141.102 73.405 C 140.608 73.622,139.988 74.250,139.725 74.800 C 139.462 75.350,138.633 76.469,137.882 77.286 C 137.105 78.132,136.707 78.851,136.959 78.955 C 137.242 79.072,137.221 79.148,136.900 79.168 C 136.625 79.186,136.400 79.481,136.400 79.824 C 136.400 80.167,136.220 80.336,136.000 80.200 C 135.780 80.064,135.600 80.323,135.600 80.776 C 135.600 81.229,135.420 81.600,135.200 81.600 C 134.980 81.600,134.800 81.851,134.800 82.157 C 134.800 82.464,134.519 82.822,134.175 82.954 C 133.831 83.086,133.664 83.380,133.804 83.607 C 133.945 83.834,133.827 83.970,133.543 83.910 C 133.259 83.849,132.714 84.414,132.332 85.165 C 131.950 85.916,131.409 86.671,131.130 86.843 C 130.851 87.015,130.750 87.283,130.905 87.439 C 131.061 87.594,130.875 87.949,130.494 88.228 C 130.112 88.507,129.784 88.885,129.765 89.068 C 129.681 89.883,129.084 90.776,128.758 90.574 C 128.561 90.452,128.400 90.723,128.400 91.176 C 128.400 91.629,128.226 92.000,128.013 92.000 C 127.799 92.000,127.740 92.300,127.881 92.666 C 128.052 93.113,127.983 93.236,127.668 93.042 C 127.212 92.760,127.029 93.240,127.177 94.331 C 127.217 94.623,126.878 94.959,126.425 95.078 C 125.686 95.271,125.311 96.570,125.553 98.100 C 125.579 98.265,125.464 98.400,125.298 98.400 C 125.131 98.400,124.760 98.985,124.471 99.700 C 124.183 100.415,123.779 101.313,123.574 101.695 C 123.368 102.077,123.200 102.579,123.200 102.811 C 123.200 103.043,122.840 103.620,122.400 104.092 C 121.960 104.564,121.600 105.277,121.600 105.675 C 121.600 106.074,121.459 106.400,121.287 106.400 C 121.115 106.400,120.934 106.895,120.884 107.500 C 120.834 108.105,120.615 108.660,120.397 108.733 C 120.178 108.807,120.000 109.222,120.000 109.657 C 120.000 110.092,119.857 110.359,119.683 110.251 C 119.392 110.072,119.213 110.729,119.080 112.471 C 119.052 112.839,118.887 113.054,118.714 112.947 C 118.541 112.840,118.400 113.087,118.400 113.496 C 118.400 113.905,118.175 114.482,117.900 114.779 C 117.497 115.213,117.505 115.258,117.941 115.009 C 118.286 114.814,118.219 115.105,117.757 115.809 C 117.358 116.418,116.974 117.292,116.904 117.750 C 116.834 118.208,116.602 118.758,116.389 118.971 C 115.880 119.480,115.886 120.118,116.395 119.803 C 116.882 119.502,116.490 120.641,115.662 121.934 C 115.147 122.738,115.143 122.919,115.632 123.234 C 115.998 123.470,116.055 123.706,115.791 123.900 C 115.567 124.065,115.324 124.830,115.253 125.600 C 115.182 126.370,114.990 127.180,114.827 127.400 C 114.664 127.620,114.492 128.605,114.444 129.590 C 114.396 130.574,114.171 131.494,113.944 131.634 C 113.717 131.775,113.547 132.004,113.566 132.145 C 113.749 133.514,113.524 136.800,113.258 136.636 C 113.069 136.519,112.882 137.624,112.842 139.090 C 112.802 140.556,112.631 141.946,112.462 142.178 C 111.467 143.549,112.101 158.330,113.145 158.100 C 113.558 158.009,113.771 158.518,113.647 159.300 C 113.621 159.465,113.830 159.600,114.112 159.600 C 114.393 159.600,114.883 159.960,115.200 160.400 C 115.856 161.310,359.600 161.709,359.600 160.800 C 359.600 160.580,359.920 160.400,360.312 160.400 C 360.703 160.400,361.283 160.040,361.600 159.600 C 361.917 159.160,362.415 158.800,362.706 158.800 C 362.997 158.800,363.189 158.575,363.134 158.300 C 363.078 158.025,363.279 157.353,363.580 156.807 C 364.227 155.634,364.402 151.289,363.840 150.332 C 363.568 149.869,363.608 149.472,363.973 149.032 C 364.345 148.584,364.376 148.253,364.078 147.894 C 363.847 147.616,363.610 145.535,363.550 143.269 C 363.491 141.003,363.298 139.060,363.121 138.951 C 362.945 138.842,362.800 137.673,362.800 136.353 C 362.800 134.855,362.650 134.046,362.400 134.200 C 362.152 134.353,362.000 133.604,362.000 132.224 C 362.000 131.001,361.820 130.000,361.600 130.000 C 361.380 130.000,361.200 129.111,361.200 128.024 C 361.200 126.937,361.020 125.936,360.800 125.800 C 360.580 125.664,360.400 125.023,360.400 124.376 C 360.400 123.729,360.220 123.200,360.000 123.200 C 359.780 123.200,359.600 122.828,359.600 122.374 C 359.600 121.919,359.407 121.187,359.171 120.747 C 358.936 120.306,358.743 118.965,358.743 117.767 C 358.743 116.528,358.583 115.687,358.371 115.818 C 358.167 115.944,358.000 115.587,358.000 115.024 C 358.000 114.461,357.809 114.000,357.576 114.000 C 357.343 114.000,357.262 113.824,357.395 113.609 C 357.528 113.393,357.099 111.992,356.442 110.495 C 355.785 108.998,355.155 107.265,355.042 106.644 C 354.930 106.024,354.563 105.310,354.226 105.058 C 353.890 104.806,353.555 104.193,353.482 103.695 C 353.409 103.197,353.150 102.590,352.906 102.346 C 352.662 102.102,352.558 101.654,352.674 101.351 C 352.790 101.048,352.715 100.800,352.507 100.800 C 352.298 100.800,351.891 100.083,351.602 99.206 C 351.313 98.329,350.744 97.311,350.338 96.944 C 349.932 96.577,349.600 96.001,349.600 95.664 C 349.600 95.327,349.210 94.636,348.733 94.129 C 348.257 93.622,347.832 92.890,347.790 92.503 C 347.667 91.380,346.952 89.877,346.051 88.848 C 345.592 88.325,345.313 87.740,345.432 87.548 C 345.550 87.357,345.501 87.200,345.321 87.200 C 345.142 87.200,344.756 86.659,344.463 85.998 C 344.170 85.336,343.766 84.897,343.565 85.021 C 343.364 85.146,343.200 84.889,343.200 84.451 C 343.200 84.005,342.847 83.542,342.400 83.400 C 341.960 83.260,341.578 82.978,341.550 82.773 C 341.523 82.568,341.478 82.261,341.450 82.090 C 341.423 81.920,340.905 81.247,340.300 80.594 C 339.695 79.942,339.200 79.171,339.200 78.880 C 339.200 78.590,339.029 78.459,338.820 78.588 C 338.610 78.717,338.224 78.104,337.960 77.225 C 337.697 76.345,337.328 75.721,337.141 75.837 C 336.953 75.952,336.800 75.851,336.800 75.610 C 336.800 75.055,334.164 72.400,333.613 72.400 C 333.386 72.400,333.200 72.154,333.200 71.854 C 333.200 71.554,331.761 69.889,330.001 68.154 C 328.242 66.419,326.802 64.775,326.801 64.500 C 326.801 64.225,326.519 64.000,326.176 64.000 C 325.833 64.000,325.664 63.820,325.800 63.600 C 325.936 63.380,325.756 63.200,325.400 63.200 C 325.044 63.200,324.864 63.020,325.000 62.800 C 325.136 62.580,324.996 62.400,324.688 62.400 C 324.380 62.400,323.583 61.815,322.916 61.100 C 321.511 59.594,320.103 58.400,319.733 58.400 C 319.302 58.400,316.400 55.293,316.400 54.831 C 316.400 54.594,316.074 54.400,315.675 54.400 C 315.277 54.400,314.551 53.860,314.063 53.200 C 313.265 52.120,311.999 51.428,312.600 52.400 C 312.736 52.620,312.657 52.800,312.424 52.800 C 312.191 52.800,312.000 52.650,312.000 52.468 C 312.000 52.285,311.505 51.881,310.900 51.570 C 310.295 51.260,309.509 50.689,309.153 50.303 C 308.797 49.916,308.202 49.600,307.829 49.600 C 307.457 49.600,307.252 49.440,307.373 49.244 C 307.494 49.048,306.954 48.584,306.172 48.214 C 305.391 47.843,304.653 47.283,304.533 46.970 C 304.413 46.656,304.064 46.400,303.757 46.400 C 303.451 46.400,303.200 46.209,303.200 45.976 C 303.200 45.743,303.020 45.664,302.800 45.800 C 302.580 45.936,302.400 45.895,302.400 45.710 C 302.400 45.524,301.860 45.054,301.200 44.664 C 300.540 44.274,300.000 44.077,300.000 44.226 C 300.000 44.376,299.738 44.281,299.418 44.015 C 298.565 43.307,295.972 42.031,296.228 42.445 C 296.349 42.640,296.278 42.800,296.070 42.800 C 295.863 42.800,295.599 42.440,295.484 42.000 C 295.326 41.395,294.938 41.200,293.891 41.200 C 293.114 41.200,292.063 40.850,291.491 40.400 C 290.931 39.960,290.282 39.600,290.047 39.600 C 289.812 39.600,289.030 39.241,288.310 38.801 C 287.589 38.362,286.719 38.002,286.375 38.001 C 286.032 38.001,285.402 37.685,284.975 37.300 C 284.549 36.915,283.690 36.540,283.066 36.467 C 282.442 36.394,281.595 36.045,281.183 35.693 C 280.772 35.340,280.143 35.009,279.786 34.957 C 279.429 34.904,278.837 34.731,278.469 34.570 C 278.101 34.410,277.561 34.230,277.269 34.170 C 276.977 34.111,276.437 33.931,276.069 33.771 C 275.701 33.611,275.054 33.413,274.631 33.332 C 274.209 33.251,273.646 33.005,273.382 32.785 C 273.118 32.566,272.613 32.497,272.261 32.632 C 271.909 32.767,271.333 32.590,270.982 32.239 C 270.630 31.887,270.131 31.603,269.871 31.606 C 269.595 31.610,269.648 31.773,270.000 32.000 C 270.963 32.622,270.073 32.458,268.737 31.767 C 268.017 31.395,267.107 31.237,266.523 31.383 C 265.979 31.520,265.621 31.490,265.728 31.316 C 265.836 31.142,264.816 30.952,263.462 30.893 C 262.108 30.834,260.940 30.609,260.867 30.393 C 260.793 30.177,259.704 30.000,258.447 30.000 C 257.189 30.000,255.989 29.835,255.780 29.634 C 254.940 28.824,226.540 28.029,225.758 28.794 " stroke="none" fill="#54cccb" fill-rule="evenodd"></path><path id="path2" d="" stroke="none" fill="#e83ca4" fill-rule="evenodd"></path><path id="path3" d="" stroke="none" fill="#a09ca4" fill-rule="evenodd"></path><path id="path4" d="M247.633 28.544 C 247.725 28.623,248.340 28.808,249.000 28.956 C 249.876 29.152,250.038 29.115,249.600 28.818 C 249.060 28.453,247.232 28.198,247.633 28.544 M205.600 32.000 C 205.112 32.315,205.164 32.389,205.876 32.394 C 206.358 32.397,206.864 32.220,207.000 32.000 C 207.315 31.491,206.388 31.491,205.600 32.000 M148.392 64.610 C 147.624 65.535,148.079 65.629,149.144 64.766 C 149.788 64.244,149.899 64.000,149.493 64.000 C 149.166 64.000,148.670 64.274,148.392 64.610 M355.807 109.079 C 356.407 110.514,356.800 111.162,356.800 110.716 C 356.800 110.284,355.585 107.600,355.389 107.600 C 355.279 107.600,355.467 108.266,355.807 109.079 M363.734 149.427 C 363.602 149.772,363.698 150.258,363.947 150.507 C 364.284 150.844,364.400 150.684,364.400 149.880 C 364.400 148.677,364.101 148.473,363.734 149.427 M364.093 153.200 C 364.093 153.970,364.175 154.285,364.276 153.900 C 364.376 153.515,364.376 152.885,364.276 152.500 C 364.175 152.115,364.093 152.430,364.093 153.200 " stroke="none" fill="#54d0a4" fill-rule="evenodd"></path><path id="path5" d="M247.633 28.544 C 247.725 28.623,248.340 28.808,249.000 28.956 C 249.876 29.152,250.038 29.115,249.600 28.818 C 249.060 28.453,247.232 28.198,247.633 28.544 M205.600 32.000 C 205.112 32.315,205.164 32.389,205.876 32.394 C 206.358 32.397,206.864 32.220,207.000 32.000 C 207.315 31.491,206.388 31.491,205.600 32.000 M148.392 64.610 C 147.624 65.535,148.079 65.629,149.144 64.766 C 149.788 64.244,149.899 64.000,149.493 64.000 C 149.166 64.000,148.670 64.274,148.392 64.610 M355.807 109.079 C 356.407 110.514,356.800 111.162,356.800 110.716 C 356.800 110.284,355.585 107.600,355.389 107.600 C 355.279 107.600,355.467 108.266,355.807 109.079 M363.734 149.427 C 363.602 149.772,363.698 150.258,363.947 150.507 C 364.284 150.844,364.400 150.684,364.400 149.880 C 364.400 148.677,364.101 148.473,363.734 149.427 M364.093 153.200 C 364.093 153.970,364.175 154.285,364.276 153.900 C 364.376 153.515,364.376 152.885,364.276 152.500 C 364.175 152.115,364.093 152.430,364.093 153.200 " stroke="none" fill="#54d0a4" fill-rule="evenodd"></path><path id="path6" d="M247.633 28.544 C 247.725 28.623,248.340 28.808,249.000 28.956 C 249.876 29.152,250.038 29.115,249.600 28.818 C 249.060 28.453,247.232 28.198,247.633 28.544 M205.600 32.000 C 205.112 32.315,205.164 32.389,205.876 32.394 C 206.358 32.397,206.864 32.220,207.000 32.000 C 207.315 31.491,206.388 31.491,205.600 32.000 M148.392 64.610 C 147.624 65.535,148.079 65.629,149.144 64.766 C 149.788 64.244,149.899 64.000,149.493 64.000 C 149.166 64.000,148.670 64.274,148.392 64.610 M355.807 109.079 C 356.407 110.514,356.800 111.162,356.800 110.716 C 356.800 110.284,355.585 107.600,355.389 107.600 C 355.279 107.600,355.467 108.266,355.807 109.079 M363.734 149.427 C 363.602 149.772,363.698 150.258,363.947 150.507 C 364.284 150.844,364.400 150.684,364.400 149.880 C 364.400 148.677,364.101 148.473,363.734 149.427 M364.093 153.200 C 364.093 153.970,364.175 154.285,364.276 153.900 C 364.376 153.515,364.376 152.885,364.276 152.500 C 364.175 152.115,364.093 152.430,364.093 153.200 " stroke="none" fill="#54d0a4" fill-rule="evenodd"></path><path id="path7" d="M247.633 28.544 C 247.725 28.623,248.340 28.808,249.000 28.956 C 249.876 29.152,250.038 29.115,249.600 28.818 C 249.060 28.453,247.232 28.198,247.633 28.544 M205.600 32.000 C 205.112 32.315,205.164 32.389,205.876 32.394 C 206.358 32.397,206.864 32.220,207.000 32.000 C 207.315 31.491,206.388 31.491,205.600 32.000 M148.392 64.610 C 147.624 65.535,148.079 65.629,149.144 64.766 C 149.788 64.244,149.899 64.000,149.493 64.000 C 149.166 64.000,148.670 64.274,148.392 64.610 M355.807 109.079 C 356.407 110.514,356.800 111.162,356.800 110.716 C 356.800 110.284,355.585 107.600,355.389 107.600 C 355.279 107.600,355.467 108.266,355.807 109.079 M363.734 149.427 C 363.602 149.772,363.698 150.258,363.947 150.507 C 364.284 150.844,364.400 150.684,364.400 149.880 C 364.400 148.677,364.101 148.473,363.734 149.427 M364.093 153.200 C 364.093 153.970,364.175 154.285,364.276 153.900 C 364.376 153.515,364.376 152.885,364.276 152.500 C 364.175 152.115,364.093 152.430,364.093 153.200 " stroke="none" fill="#54d0a4" fill-rule="evenodd"></path><path id="path8" d="M247.633 28.544 C 247.725 28.623,248.340 28.808,249.000 28.956 C 249.876 29.152,250.038 29.115,249.600 28.818 C 249.060 28.453,247.232 28.198,247.633 28.544 M205.600 32.000 C 205.112 32.315,205.164 32.389,205.876 32.394 C 206.358 32.397,206.864 32.220,207.000 32.000 C 207.315 31.491,206.388 31.491,205.600 32.000 M148.392 64.610 C 147.624 65.535,148.079 65.629,149.144 64.766 C 149.788 64.244,149.899 64.000,149.493 64.000 C 149.166 64.000,148.670 64.274,148.392 64.610 M355.807 109.079 C 356.407 110.514,356.800 111.162,356.800 110.716 C 356.800 110.284,355.585 107.600,355.389 107.600 C 355.279 107.600,355.467 108.266,355.807 109.079 M363.734 149.427 C 363.602 149.772,363.698 150.258,363.947 150.507 C 364.284 150.844,364.400 150.684,364.400 149.880 C 364.400 148.677,364.101 148.473,363.734 149.427 M364.093 153.200 C 364.093 153.970,364.175 154.285,364.276 153.900 C 364.376 153.515,364.376 152.885,364.276 152.500 C 364.175 152.115,364.093 152.430,364.093 153.200 " stroke="none" fill="#54d0a4" fill-rule="evenodd"></path></g></svg>